<svg width="50" height="50" viewBox="0 0 50 50" fill="none" xmlns="http://www.w3.org/2000/svg">
<path d="M25 50C38.8071 50 50 38.8071 50 25C50 11.1929 38.8071 0 25 0C11.1929 0 0 11.1929 0 25C0 38.8071 11.1929 50 25 50Z" fill="url(#paint0_linear_16_84)"/>
<path fill-rule="evenodd" clip-rule="evenodd" d="M34.3624 27.7577C34.3624 27.7577 36.3028 29.6741 36.7828 30.5609C36.7922 30.5736 36.7994 30.5878 36.8044 30.6029C37 30.9305 37.048 31.1873 36.952 31.3769C36.79 31.6901 36.2416 31.8473 36.0556 31.8605H32.626C32.3872 31.8605 31.8904 31.7981 31.2856 31.3805C30.8236 31.0577 30.364 30.5261 29.9188 30.0065C29.254 29.2349 28.6792 28.5653 28.0972 28.5653C28.0237 28.5651 27.9507 28.5773 27.8812 28.6013C27.4408 28.7405 26.8816 29.3681 26.8816 31.0397C26.8816 31.5629 26.4688 31.8605 26.1796 31.8605H24.6088C24.0736 31.8605 21.2872 31.6733 18.8164 29.0681C15.7888 25.8785 13.0696 19.48 13.0432 19.4236C12.874 19.0096 13.2292 18.784 13.6132 18.784H17.0764C17.5408 18.784 17.692 19.0648 17.7976 19.3168C17.92 19.606 18.3736 20.7628 19.1176 22.0624C20.3224 24.1768 21.0628 25.0373 21.6544 25.0373C21.7656 25.0376 21.8748 25.0086 21.9712 24.9533C22.744 24.5285 22.6 21.7684 22.564 21.1996C22.564 21.0892 22.5628 19.9672 22.1668 19.4248C21.8836 19.036 21.4012 18.8848 21.1096 18.8296C21.1876 18.7168 21.3532 18.544 21.5656 18.442C22.0948 18.178 23.0512 18.1396 24.0004 18.1396H24.5272C25.5568 18.154 25.8232 18.22 26.1976 18.3148C26.9512 18.4948 26.9656 18.9832 26.8996 20.6464C26.8804 21.1216 26.86 21.6568 26.86 22.2868C26.86 22.4212 26.854 22.5712 26.854 22.7236C26.8312 23.5768 26.8012 24.5381 27.4036 24.9329C27.4817 24.9815 27.572 25.0073 27.664 25.0072C27.8728 25.0072 28.498 25.0072 30.1936 22.0972C30.9376 20.812 31.5136 19.2964 31.5532 19.1824C31.5868 19.1188 31.6876 18.94 31.81 18.868C31.8971 18.8217 31.9946 18.7986 32.0932 18.8008H36.1672C36.6112 18.8008 36.9124 18.868 36.9712 19.036C37.0696 19.3084 36.952 20.14 35.092 22.6552C34.7788 23.074 34.504 23.4365 34.2628 23.7533C32.5768 25.9661 32.5768 26.0777 34.3624 27.7577Z" fill="white"/>
<defs>
<linearGradient id="paint0_linear_16_84" x1="5.1105" y1="-4.45975e-06" x2="48.2386" y2="3.21466" gradientUnits="userSpaceOnUse">
<stop stop-color="#C89AFC"/>
<stop offset="1" stop-color="#7C6AFA"/>
</linearGradient>
</defs>
</svg>
